<svg version="1.1" xmlns="http://www.w3.org/2000/svg" xmlns:xlink="http://www.w3.org/1999/xlink" width="207.41785" height="136.9894" viewBox="0,0,207.41785,136.9894"><g transform="translate(-179.58216,-104.5)"><g data-paper-data="{&quot;isPaintingLayer&quot;:true}" fill-rule="nonzero" stroke-linejoin="miter" stroke-miterlimit="10" stroke-dasharray="" stroke-dashoffset="0" style="mix-blend-mode: normal"><path d="M204.08513,179.5197c0,-19.70014 16.45406,-35.67026 36.75118,-35.67026c20.29712,0 36.75118,15.97012 36.75118,35.67026c0,19.70014 -16.45406,35.67026 -36.75118,35.67026c-20.29712,0 -36.75118,-15.97012 -36.75118,-35.67026z" fill="#9966ff" stroke="#ff0000" stroke-width="0" stroke-linecap="butt"/><path d="M366.81226,122.32937l-110.84312,7.66468" fill="none" stroke="none" stroke-width="0" stroke-linecap="round"/><path d="M269.52974,150.62974l78.41561,-25.35242" fill="none" stroke="#ff1900" stroke-width="5" stroke-linecap="round"/><path d="M245.35651,141.19628l96.69294,-34.19628" fill="none" stroke="#ff1900" stroke-width="5" stroke-linecap="round"/><path d="M283.39632,165.096l78.98283,-8.88643" fill="none" stroke="#ff2500" stroke-width="5" stroke-linecap="round"/><path d="M278.9632,181.28848l82.54275,7.07509" fill="none" stroke="#ff1900" stroke-width="5" stroke-linecap="round"/><path d="M270.11933,205.46171l102.58885,11.79182" fill="none" stroke="#ff1900" stroke-width="5" stroke-linecap="round"/><path d="M252.4316,216.07435l132.0684,18.86691" fill="none" stroke="#ff2500" stroke-width="5" stroke-linecap="round"/><path d="M205.41171,173.62379l-13.2658,-7.95948l19.16171,-1.76877l-10.61264,-20.34089l18.57212,8.25428l0.88439,-21.22528l12.08662,16.80335l8.25428,-21.22528l7.66468,21.22528l17.09814,-17.68773l-3.24275,26.2368l24.17323,-11.20223l-14.73978,19.16171l27.12119,1.76877l-25.05762,15.32937l21.22528,13.2658l-22.99405,2.65316l11.20223,18.86691l-21.81487,-7.66468l3.24275,22.40446l-15.91896,-18.27732l-7.36989,21.81487l-8.54907,-22.69926l-18.57212,17.39294l3.24275,-23.87844l-22.10967,7.07509l14.73978,-19.45651l-23.58364,-4.42193l21.22528,-13.56059" fill="#9966ff" stroke="#9465ff" stroke-width="5" stroke-linecap="round"/></g></g></svg>