<svg version="1.1" xmlns="http://www.w3.org/2000/svg" xmlns:xlink="http://www.w3.org/1999/xlink" width="207.41785" height="136.9894" viewBox="0,0,207.41785,136.9894"><g transform="translate(-180.58215,-206.5)"><g data-paper-data="{&quot;isPaintingLayer&quot;:true}" fill-rule="nonzero" stroke-linejoin="miter" stroke-miterlimit="10" stroke-dasharray="" stroke-dashoffset="0" style="mix-blend-mode: normal"><path d="M205.08513,281.5197c0,-19.70014 16.45406,-35.67026 36.75118,-35.67026c20.29712,0 36.75118,15.97012 36.75118,35.67026c0,19.70014 -16.45406,35.67026 -36.75118,35.67026c-20.29712,0 -36.75118,-15.97012 -36.75118,-35.67026z" data-paper-data="{&quot;index&quot;:null}" fill="#9966ff" stroke="#ff0000" stroke-width="0" stroke-linecap="butt"/><path d="M367.81226,224.32937l-110.84312,7.66468" data-paper-data="{&quot;index&quot;:null}" fill="none" stroke="none" stroke-width="0" stroke-linecap="round"/><path d="M270.52974,252.62974l78.41561,-25.35242" data-paper-data="{&quot;index&quot;:null}" fill="none" stroke="#ff1900" stroke-width="5" stroke-linecap="round"/><path d="M343.04945,209l-96.69294,34.19628" data-paper-data="{&quot;index&quot;:null}" fill="none" stroke="#ff1900" stroke-width="5" stroke-linecap="round"/><path d="M284.39632,267.096l78.98283,-8.88643" data-paper-data="{&quot;index&quot;:null}" fill="none" stroke="#ff2500" stroke-width="5" stroke-linecap="round"/><path d="M362.50595,290.36357l-82.54275,-7.07509" data-paper-data="{&quot;index&quot;:null}" fill="none" stroke="#ff1900" stroke-width="5" stroke-linecap="round"/><path d="M271.11933,307.46171l102.58885,11.79182" data-paper-data="{&quot;index&quot;:null}" fill="none" stroke="#ff1900" stroke-width="5" stroke-linecap="round"/><path d="M253.4316,318.07435l132.0684,18.86691" data-paper-data="{&quot;index&quot;:null}" fill="none" stroke="#ff2500" stroke-width="5" stroke-linecap="round"/><path d="M206.41171,275.62379l-13.2658,-7.95948l19.16171,-1.76877l-10.61264,-20.34089l18.57212,8.25428l0.88439,-21.22528l12.08662,16.80335l8.25428,-21.22528l7.66468,21.22528l17.09814,-17.68773l-3.24275,26.2368l24.17323,-11.20223l-14.73978,19.16171l27.12119,1.76877l-25.05762,15.32937l21.22528,13.2658l-22.99405,2.65316l11.20223,18.86691l-21.81487,-7.66468l3.24275,22.40446l-15.91896,-18.27732l-7.36989,21.81487l-8.54907,-22.69926l-18.57212,17.39294l3.24275,-23.87844l-22.10967,7.07509l14.73978,-19.45651l-23.58364,-4.42193l21.22528,-13.56059" data-paper-data="{&quot;index&quot;:null}" fill="#9966ff" stroke="#9465ff" stroke-width="5" stroke-linecap="round"/></g></g></svg>