<svg version="1.1" xmlns="http://www.w3.org/2000/svg" xmlns:xlink="http://www.w3.org/1999/xlink" width="703" height="534.81156" viewBox="0,0,703,534.81156"><g transform="translate(88.5,81.31156)"><g data-paper-data="{&quot;isPaintingLayer&quot;:true}" fill-rule="nonzero" stroke="none" stroke-linecap="butt" stroke-linejoin="miter" stroke-miterlimit="10" stroke-dasharray="" stroke-dashoffset="0" style="mix-blend-mode: normal"><path d="M-85.84159,282.0518v-363.36336h687.68769v363.36336z" fill="#8d8d8d" stroke-width="0"/><path d="M-88.5,453.5v-176h703v176z" fill="#3a2017" stroke-width="0"/><path d="M26.81586,259.65928c0.01709,-0.19549 0.04139,-0.35886 0.07473,-0.48093c0.05076,-0.18589 0.10751,-0.37005 0.16919,-0.55278c-0.38584,0.07669 -0.77241,0.13135 -0.78021,0.45151c-0.00704,0.28891 0.23923,0.44447 0.5363,0.5822zM21.17516,258.28857c0.05885,-0.02164 0.11685,-0.04093 0.17397,-0.05797c0.26559,-0.99626 1.62808,-1.60224 2.15997,-2.55819c1.57114,-2.82377 2.41031,-6.51649 3.44291,-9.61821c1.36756,-4.01138 3.45824,-8.13921 5.82356,-11.66014c0.70911,-1.05556 1.10953,-2.42506 2.15635,-3.14701c1.68805,-1.16417 3.92616,-3.28568 5.7134,-2.28041c1.79524,1.00976 1.664,4.12013 1.05642,6.08821c-0.49014,1.58769 -2.8176,1.84555 -3.89595,3.10973c-0.48596,0.56971 -0.34827,1.45982 -0.60264,2.16411c-0.83852,2.32165 -2.24461,4.48092 -2.64573,6.91654c-0.29451,1.78824 0.27738,3.64396 0.01355,5.43698c-0.39531,2.68654 -2.02842,5.04559 -2.81414,7.6449c-0.60571,2.00384 0.32325,4.20667 0.0346,6.28005c-0.28144,2.02156 -0.70394,3.80629 -1.25539,5.55839l0.31713,0.06343l-0.91291,4.56457c-0.20987,1.16847 -1.23166,2.05512 -2.46053,2.05512c-0.88153,0 -1.6565,-0.45626 -2.10163,-1.14551l-1.82249,-2.73373l0.11877,-0.07918l-0.32493,-0.29618c-0.55992,-2.23967 -1.70841,-4.2945 -2.72549,-6.36698c-0.35814,-0.72977 -0.15316,-1.71371 -0.66298,-2.34689c-0.77267,-0.95963 -2.34723,-1.12676 -2.98341,-2.18183c-0.47609,-0.78957 0.47236,-1.97418 0,-2.76599c-0.50555,-0.84745 -1.94018,-0.72923 -2.54857,-1.50615c-0.47063,-0.601 0.18062,-1.75632 -0.39701,-2.25537c-0.44404,-0.38363 -1.1246,0.52833 -1.70467,0.43961c-3.58348,-0.54803 -3.89039,-3.0582 -6.97552,-2.73371c0,0 -2.5,0 -2.5,-2.5c0,-2.5 2.5,-2.5 2.5,-2.5c1.2409,0.06343 2.55902,-0.24524 3.7227,0.1903c1.50478,0.56321 2.47233,2.32381 4.05373,2.60797c1.26392,0.22711 2.77756,-0.30003 3.82731,0.43961c0.97602,0.6877 0.69455,2.34958 1.44699,3.27661c0.70084,0.86347 2.04892,1.08618 2.77264,1.89731z" fill="#a1a1a1" stroke-width="0.5"/><path d="M152.79855,201.15959c2.35133,0.84925 1.50208,3.20059 1.50208,3.20059l-1.20871,3.31204c-0.8403,1.39046 -1.68061,2.78093 -2.52091,4.17139c-0.64488,2.66584 -0.84472,5.43729 -1.63086,8.06494c-0.47062,1.57304 -1.47672,2.95121 -1.94943,4.52363c-0.82278,2.73691 -0.15907,5.782 -0.99039,8.51632c-0.30941,1.0177 -1.50862,1.61185 -1.80027,2.63478c-0.32336,1.13418 0.32996,2.39463 0.04039,3.53791c-0.62014,2.44843 -1.81254,4.72454 -2.95332,6.97797c-0.44157,0.87224 -1.45704,1.44435 -1.69705,2.39207c-0.73391,2.89801 0.63449,6.03408 0.06216,8.96828c-0.32265,1.65417 -1.44222,3.0683 -1.86311,4.70025c-0.29066,1.12697 0.00566,2.34676 -0.24737,3.48276c-0.35573,1.59709 -1.21564,3.05407 -1.56468,4.65263c-0.58138,2.66264 0.03228,6.07701 0.03228,8.81951c0,0 0,2.5 -2.5,2.5c-1.04638,0 -1.6548,-0.43797 -2.00856,-0.94728c-0.18211,0.24809 -0.3593,0.49849 -0.5213,0.75602c0,0 -1.38675,2.08013 -3.46688,0.69338c-2.08013,-1.38675 -0.69338,-3.46688 -0.69338,-3.46688c3.03982,-4.17586 1.42412,-11.93 1.42412,-17.05319c0,-5.62075 0.59527,-11.62495 0.01873,-17.21248c-0.26032,-2.52294 -2.19841,-4.62448 -2.71784,-7.10705c-0.08007,-0.38266 -0.06688,-7.43778 -0.06688,-8.87235c0,-5 0,-10 0,-15c0,-2.99064 0,-5.98128 0,-8.97192v-2.76599c0,0 0,-2.5 2.5,-2.5c2.5,0 2.5,2.5 2.5,2.5c0,2.99064 0,8.74727 0,11.73791c0,5 0,10 0,15c0,2.57463 -0.61029,5.20696 -0.06688,7.72359c0.57314,2.65429 2.49715,4.948 2.81414,7.6449c0.61611,5.24173 0.12438,10.92544 0.03273,16.27809c0.49765,-1.18033 1.22776,-2.28579 1.48509,-3.53745c0.6358,-3.09261 -0.69665,-6.40691 0.06216,-9.47166c0.73062,-2.95087 3.81194,-5.99631 4.56959,-9.06989c0.30622,-1.24224 -0.31173,-2.60805 0.04039,-3.83807c0.31723,-1.10813 1.54021,-1.79819 1.88772,-2.8972c0.81649,-2.58218 0.09838,-5.47886 0.8536,-8.07962c0.47167,-1.62431 1.50249,-3.04812 1.98976,-4.66782c0.84006,-2.79236 1.08179,-5.73488 1.80593,-8.55952c0.87468,-1.46785 1.74937,-2.93569 2.62405,-4.40354l1.0223,-2.86498c0,0 0.84925,-2.35133 3.20059,-1.50208z" fill="#a1a1a1" stroke-width="0.5"/><path d="M405.10416,170.45046c0.79057,2.37171 -1.58114,3.16228 -1.58114,3.16228l-2.76599,0.922c-3.92984,1.26758 -7.73885,1.17099 -11.85453,1.05029c-1.24199,-0.03643 -2.55785,0.2421 -3.7227,-0.1903c-1.64076,-0.60906 -2.82661,-2.64788 -4.57527,-2.57569c-3.13847,0.12957 -8.5244,2.39006 -9.61425,5.66654c-0.38801,1.16649 0,2.45866 0,3.68799c-1.50898,2.09458 -3.16836,3.54818 -3.59198,6.06386c-0.2668,1.58438 0.69478,3.14053 0.922,4.73107c0.17833,1.24833 -0.14313,2.53175 0.01355,3.78298c0.333,2.65921 1.22933,5.32459 0.922,7.98689c-0.14531,1.2588 -0.72924,2.43557 -0.922,3.68799c-0.17349,1.12724 0.23644,2.35221 -0.17157,3.41724c-0.31097,0.81174 -1.56503,1.0207 -1.84399,1.84399c-0.33544,0.98995 0.2923,2.09516 0.15802,3.13173c-0.12485,0.96382 -0.75597,1.80841 -0.922,2.76599c-0.39478,2.27695 -0.47925,4.735 -0.43443,7.23958c0.1463,0.27306 0.2698,0.55653 0.35944,0.85547c0.42259,1.40925 0.08978,2.9413 0.10727,4.41245c0.01882,1.58283 0.1354,3.34713 0.20384,5.12843c0.80827,3.29814 1.40872,6.12471 1.58617,9.42617c0.73699,0.59882 0.92744,1.55106 0.92744,1.55106c0.67056,3.39622 1.34482,6.87476 1.86026,10.2318c0.11207,0.72991 -0.42173,1.51997 -0.15802,2.20974c0.22686,0.59337 1.06269,0.72628 1.46765,1.21573c0.37452,0.45266 4.04408,6.07685 4.14736,6.39249c0.77222,2.36004 0.10727,6.50591 0.10727,9.02243v0.922c0,0 0,2.5 -2.5,2.5c-2.5,0 -2.5,-2.5 -2.5,-2.5v-0.922c0,-1.96048 0.73707,-5.74034 0.10727,-7.57351c-0.93088,-2.70953 -4.42078,-4.63875 -5.44895,-7.14373c-0.42097,-1.02563 0.03563,-2.23062 -0.15802,-3.32224c-0.03112,-0.17543 -0.06211,-0.35077 -0.093,-0.52604c-0.29512,1.15112 -0.27923,2.4263 -0.92773,3.4097c-0.61003,0.92507 -2.10734,0.95289 -2.76599,1.84399c-0.51492,0.69664 -0.40418,1.69075 -0.48427,2.55332c-0.24742,2.66478 0.11435,4.69156 0.81244,7.20194c0.37922,1.36372 1.52807,2.82447 0.98341,4.13094c-2.56565,6.15417 -4.92505,3.77848 -7.88888,1.19338c-0.25629,-0.22354 -0.52457,-0.44606 -0.78747,-0.67564c-0.62941,0.37049 -1.29529,0.70087 -1.91425,1.08283c0.03344,0.04265 0.06541,0.08476 0.09563,0.12628c0,0 1.38675,2.08013 -0.69338,3.46688c-2.08013,1.38675 -3.46688,-0.69338 -3.46688,-0.69338c-1.60974,-2.55896 -3.64935,-4.41138 -2.07357,-7.87544c0.73484,-1.6154 2.75204,-2.33233 3.68708,-3.84071c0.70038,-1.12983 0.45819,-2.66262 1.07445,-3.84044c0.88413,-1.68979 2.75938,-2.7348 3.60036,-4.44648c1.38974,-2.82862 2.96286,-7.25781 3.46606,-10.36604c0.15662,-0.96744 -0.23453,-1.99755 0.0346,-2.93992c0.54051,-1.89264 2.38838,-4.13521 2.73139,-6.28005c0.18423,-1.15201 0.14464,-2.32091 0.07846,-3.49207c-0.11074,-0.40448 -0.11074,-0.71746 -0.11074,-0.71746c0,-3.06354 -0.22865,-6.34186 -0.34922,-9.61736c-0.21628,-0.57213 -0.51638,-1.13899 -0.92813,-1.70563c-2.2018,-2.17923 -4.40893,-4.10647 -5.84441,-6.94057c-1.60735,-3.17342 -1.41893,-6.90973 -2.72439,-10.0607c-0.27199,-0.65649 -1.12499,-0.88721 -1.57316,-1.43867c-1.42509,-1.75351 -2.60446,-3.75149 -4.31463,-5.22832c-1.30666,-1.12837 -2.96765,-1.87093 -4.07809,-3.19285c-0.61099,-0.72735 -0.32514,-1.93973 -0.88066,-2.71028c-0.77462,-1.07447 -3.77471,-1.60324 -4.64359,-2.03769c-0.99112,-0.49556 -1.777,-1.3442 -2.76599,-1.84399c-1.80701,-0.91318 -4.00145,-0.93895 -5.74793,-1.96315c-0.72314,-0.42408 -1.01368,-1.41608 -1.76141,-1.79512c-2.37993,-1.20642 -6.17036,-1.70031 -8.77879,-2.56978l-2.76599,-0.922c0,0 -2.37171,-0.79057 -1.58114,-3.16228c0.79057,-2.37171 3.16228,-1.58114 3.16228,-1.58114l2.76599,0.922c2.92652,0.97551 6.97883,1.63588 9.66115,2.9622c0.80702,0.39904 1.1602,1.42045 1.92657,1.89287c1.58586,0.97757 3.64657,0.8981 5.31603,1.72483c0.99301,0.49175 1.77487,1.34844 2.76599,1.84399c2.17932,1.08966 4.83581,1.64336 6.42037,3.49429c0.64634,0.755 0.33054,2.05531 0.96334,2.8217c0.8581,1.03926 2.27127,1.46595 3.29789,2.33913c1.93569,1.64638 3.33088,3.84101 4.90534,5.83564c0.63763,0.80779 1.70099,1.30707 2.11482,2.24932c1.38108,3.14453 1.24814,7.04919 2.80759,10.22323c0.58363,1.1879 1.43291,2.22021 2.36415,3.18538c0.07017,-0.84322 0.16743,-1.67378 0.29831,-2.48746c0.15435,-0.95954 0.77401,-1.80545 0.922,-2.76599c0.21557,-1.39922 -0.28422,-2.89936 0.15802,-4.24424c0.27154,-0.82577 1.50571,-1.04325 1.84399,-1.84399c0.27523,-0.65148 -0.26228,-1.41335 -0.17157,-2.11474c0.16252,-1.2567 0.75088,-2.43243 0.922,-3.68799c0.30733,-2.25502 -0.64022,-4.5067 -0.922,-6.76506c-0.14828,-1.18846 0.18293,-2.40736 0.01355,-3.59299c-0.30169,-2.11178 -1.27072,-4.22837 -0.922,-6.33289c0.58781,-3.54739 1.58213,-4.04333 3.784,-6.84409c0,-1.22933 -0.46345,-2.54936 0,-3.68799c2.06866,-5.08235 8.83213,-9.21887 14.35767,-9.08541c1.69124,0.04085 3.38026,0.5451 4.91973,1.2465c0.70391,0.3207 0.86351,1.39249 1.56896,1.70979c0.55305,0.24876 1.20339,-0.1651 1.80928,-0.1903c3.59495,-0.14953 6.84431,0.39843 10.27339,-0.79371l2.76599,-0.922c0,0 2.37171,-0.79057 3.16228,1.58114z" fill="#a1a1a1" stroke-width="0.5"/><path d="M274.1806,263.57215c0.79057,2.37171 -1.58114,3.16228 -1.58114,3.16228l-1.78879,0.31806c-0.18771,0.77085 -0.16132,1.62845 -0.56314,2.31255c-0.57405,0.97732 -3.0726,2.6887 -3.42188,4.02012c-0.48472,1.84765 0.10727,3.81934 0.10727,5.72952c0,0 0,0.43182 -0.17947,0.93652c0.27787,0.69702 0.52751,2.0134 -0.93378,2.98759c-2.08013,1.38675 -3.46688,-0.69338 -3.46688,-0.69338c-2.07519,-3.17971 -2.20472,-6.26253 -3.85365,-9.50834c-1.11895,-2.20257 -2.57093,-4.22589 -3.67827,-6.43432l-0.72596,0.19604c0,0 -2.23607,-1.11803 -1.11803,-3.3541c1.11803,-2.23607 3.3541,-1.11803 3.3541,-1.11803l2.96203,2.04003c1.06434,2.13518 2.47958,4.08319 3.56401,6.20735c0.93446,-1.26001 2.31347,-2.29087 3.13725,-3.63765c0.60265,-0.98526 0.8539,-2.14629 1.28086,-3.21943l3.74319,-1.52594c0,0 2.37171,-0.79057 3.16228,1.58114z" fill="#a1a1a1" stroke-width="0.5"/><path d="M492.99191,265.93661c-0.45901,-0.03071 -2.40377,-0.29092 -2.40377,-2.49589c0,-2.5 2.5,-2.5 2.5,-2.5l2.68976,0.73223c1.89306,1.90927 2.67833,2.46429 3.95824,4.87948c0.02936,-0.21635 0.05958,-0.43338 0.0907,-0.65118c0.35269,-2.46883 0.13672,-5.13769 1.22777,-7.38027c1.16835,-2.40146 4.19452,-4.44891 5.67938,-6.68401c0.76055,-1.14483 1.08163,-2.54437 1.84399,-3.68799c0.45005,-0.67512 1.32716,-1.00132 1.74547,-1.69655c0.54191,-0.90064 0.40082,-2.15192 1.06186,-2.96915c1.3821,-1.70866 4.64009,-3.88232 6.91247,-5.38765c0.13381,-0.72007 0.62765,-2.04884 2.45027,-2.04884c2.5,0 2.5,2.5 2.5,2.5l-1.11325,3.00212c-1.57315,1.03981 -2.9231,2.38369 -4.41176,3.54122c-0.72682,0.56515 -1.79419,0.7051 -2.3642,1.42812c-0.55297,0.70142 -0.32358,1.79636 -0.78214,2.56283c-0.47608,0.79577 -1.42811,1.21988 -1.94252,1.99144c-0.76243,1.14358 -1.07983,2.54557 -1.84399,3.68799c-1.40945,2.10712 -4.23153,4.01333 -5.38459,6.22395c-1.15135,2.20734 -0.28942,3.24002 -0.61623,5.52769c-0.31019,2.17133 -0.52843,4.24808 -0.67259,6.33017c0.30258,0.26467 0.59905,0.53455 0.88108,0.81658c0,0 1.76777,1.76777 0,3.53553c-0.36999,0.36999 -0.73997,0.5851 -1.09375,0.69396c-0.01221,0.70578 -0.01801,1.42069 -0.01801,2.14826c0,0 0,2.5 -2.5,2.5c-2.5,0 -2.5,-2.5 -2.5,-2.5c0,-1.81997 0.03508,-3.57456 0.11427,-5.30713c-1.19952,-1.20754 -2.38227,-2.41301 -2.50689,-2.59851c-0.5871,-0.87393 -0.57867,-2.03613 -1.04116,-2.98194c-0.75632,-1.54671 -1.45531,-2.24377 -2.46043,-3.21247z" fill="#a1a1a1" stroke-width="0.5"/><path d="M468.65898,264.12658c2.08013,1.38675 0.69338,3.46688 0.69338,3.46688l-1.88327,2.82317c-1.62171,2.16228 -2.99207,4.51454 -4.71748,6.59502c-0.40553,0.48898 -1.27205,0.61133 -1.46765,1.21573c-0.281,0.8683 0.12687,1.82085 0.1903,2.73128c0,0 0,2.5 -2.5,2.5c-2.5,0 -2.5,-2.5 -2.5,-2.5c0.03471,-0.84722 -0.06044,-1.71858 -0.07226,-2.57446c-5.24577,-2.25009 -7.4167,-6.98006 -10.57182,-11.71274l-0.8819,-0.07268c0,0 -2.23607,-1.11803 -1.11803,-3.3541c1.11803,-2.23607 3.3541,-1.11803 3.3541,-1.11803l2.80609,1.77131c2.46975,3.70463 4.37054,8.68976 8.79782,10.0623c0.0332,-0.03888 0.06546,-0.07838 0.09665,-0.11856c1.58493,-2.04172 2.95168,-4.24519 4.50249,-6.31294l1.80472,-2.70881c0,0 1.38675,-2.08013 3.46688,-0.69338z" fill="#a1a1a1" stroke-width="0.5"/><path d="M97.62771,224.79308c1.76777,-1.76777 3.53553,0 3.53553,0l1.99645,1.99645c1.26529,1.28051 2.71666,2.4007 3.79587,3.84153c0.80511,1.07488 0.98646,2.5325 1.7864,3.61123c1.79727,2.42364 5.12212,3.4884 6.75475,6.02587c0.51479,0.80009 -0.19357,1.93125 0.03842,2.85392c0.36685,1.45906 3.01151,0.88389 4.06805,1.95493c0.85038,0.86205 0.75138,2.32259 1.365,3.3665c2.70805,4.60699 9.04989,11.05449 14.25375,12.6255c0,0 2.37171,0.79057 1.58114,3.16228c-0.79057,2.37171 -3.16228,1.58114 -3.16228,1.58114c-5.30821,-1.88315 -10.15119,-6.44139 -13.84838,-10.71725c-1.17757,-1.36189 -2.34882,-2.75609 -3.24577,-4.31715c-0.3683,-0.641 0.04968,-1.64873 -0.47899,-2.16548c-0.56736,-0.55457 -1.66086,-0.11066 -2.31255,-0.56314c-1.13376,-0.78719 -2.22995,-1.77549 -2.83936,-3.01391c-0.39418,-0.80104 0.50505,-1.91694 0.03842,-2.67806c-1.38555,-2.25996 -4.54151,-2.93344 -6.15321,-5.03809c-0.85478,-1.11622 -1.06518,-2.63469 -1.90159,-3.76474c-0.91214,-1.23238 -2.18346,-2.15303 -3.2752,-3.22954l-1.99645,-1.99645c0,0 -1.76777,-1.76777 0,-3.53553z" fill="#a1a1a1" stroke-width="0.5"/></g></g></svg>