<svg version="1.1" xmlns="http://www.w3.org/2000/svg" xmlns:xlink="http://www.w3.org/1999/xlink" width="741.75" height="525.97823" viewBox="0,0,741.75,525.97823"><g transform="translate(127.25,72.47823)"><g data-paper-data="{&quot;isPaintingLayer&quot;:true}" fill-rule="nonzero" stroke="none" stroke-linecap="butt" stroke-linejoin="miter" stroke-miterlimit="10" stroke-dasharray="" stroke-dashoffset="0" style="mix-blend-mode: normal"><path d="M-87.17492,290.88513v-363.36336h687.68769v363.36336z" fill="#8d8d8d" stroke-width="0"/><g><text transform="translate(99.5,95.25) scale(1.12839,1.12839)" font-size="40" xml:space="preserve" fill="#000000" fill-rule="nonzero" stroke="none" stroke-width="1" stroke-linecap="butt" stroke-linejoin="miter" stroke-miterlimit="10" stroke-dasharray="" stroke-dashoffset="0" font-family="Sans Serif" font-weight="normal" text-anchor="start" style="mix-blend-mode: normal"><tspan x="0" dy="0">Ball Game</tspan></text><path d="M209.59384,70.61261c-2.0574,1.71205 -6.31043,3.67472 -7.15812,6.44292c-0.6852,2.23757 -0.18572,5.46677 -0.18572,7.7778c0,1.33835 -0.84104,2.7573 -0.34473,4.00022c0.34228,0.85718 1.83866,0.34573 2.75719,0.25509c1.82932,-0.1805 3.66601,-0.3352 5.50421,-0.33865l0.80182,-0.1991c0.60448,-1.10364 0.94818,-2.37047 0.94818,-3.71757c0,-0.70554 -0.09428,-1.38905 -0.27093,-2.03864c-0.25677,0.07929 -0.5296,0.12197 -0.81241,0.12197c-0.70959,0 -1.35641,-0.26876 -1.84422,-0.71003c-0.15873,0.02849 -0.32218,0.04337 -0.48911,0.04337c-1.51878,0 -2.75,-1.23122 -2.75,-2.75c0,-0.8358 0.37286,-1.58451 0.96131,-2.08887l-0.99059,-1.00497c1.18311,-0.99329 2.00586,-2.91591 3.54933,-2.97986c0.58568,-0.02427 1.11264,0.17866 1.61126,0.49122c-0.07302,-0.59714 -0.25684,-1.16004 -0.5303,-1.66752h1.81565l0.6496,0.1624c-1.06198,-0.62771 -1.94998,-1.51856 -2.57425,-2.5828c-0.29675,0.49016 -0.64817,0.78301 -0.64817,0.78301zM196.41667,84.83333c0,0.75199 0.1071,1.47897 0.30689,2.16651c-0.06362,-1.18313 -0.13479,-2.40922 -0.16571,-3.6466c-0.09265,0.4791 -0.14117,0.97393 -0.14117,1.4801zM219.40897,57.68207l0.66667,0.33333l0.81748,0.7007l0.32891,0.17542l0.03947,0.14033l1.65116,1.41528l0.01588,0.28584l0.24856,0.14203l0.67355,2.6942l0.14723,0.16456l-0.02496,0.32453l0.11043,0.44171v0.66667l-0.28266,1.13064l-0.08939,1.16201l-0.28047,0.8414c-0.37098,1.20626 -1.04822,2.27839 -1.94097,3.12562l-0.11797,0.18538l-0.11002,0.022c-1.2738,1.11043 -2.9393,1.78295 -4.76187,1.78295c-0.19259,0 -0.38343,-0.00751 -0.57224,-0.02225l0.00594,0.0104l0.28584,0.01588l2.43172,2.83701l0.66667,1.33333l0.14725,0.66262l0.3392,0.58795l0.62339,2.18186l0.61685,1.85055l0.04411,0.57338l0.2293,0.52738l0.33333,2l-0.04832,0.60403l0.14697,0.58787v1.19362l0.04517,0.06776l-0.04517,0.20327v0.20201l-0.40403,1.61611l-0.36137,1.62618l-0.09034,0.18069l-0.02738,0.10954l0.01543,0.05659l-0.10713,0.17856l-0.06388,0.19165l-0.89436,1.40542l-0.85707,1.42846l-0.14285,0.14285l-0.11179,0.17568l-0.07985,0.01597l-0.99768,0.99768l-0.01597,0.07985l-0.17568,0.11179l-0.14285,0.14285l-1.42846,0.85707l-1.40542,0.89436l-0.19165,0.06388l-0.17856,0.10713l-0.07857,-0.02143l-1.55123,0.51708l-1.16201,0.08939l-1.13064,0.28266h-6.19362l-0.06776,0.04517l-0.20327,-0.04517h-0.20201l-1.61611,-0.40403l-1.62618,-0.36137l-0.18069,-0.09034l-0.20201,-0.0505l-0.0404,-0.07071l-0.44938,-0.22469l-0.5112,-0.1704l-0.30485,-0.194l-2.69416,-0.67354l-0.14203,-0.24856l-0.28584,-0.01588l-1.31427,-1.53331l-0.50474,-0.10095l-0.50013,-0.78592l-0.70729,-0.60625l-0.03075,-0.55353l-0.76789,-1.20669l-0.1704,-0.5112l-0.10291,-0.20582l-0.1132,-0.5094l-0.28016,-0.44025l-0.66667,-2l-0.08939,-1.16201l-0.28266,-1.13064v-1.44082l-0.11687,-0.46747v-0.89252l-0.21647,-0.86587v-1.86029l-0.04517,-0.06776l0.04517,-0.20327v-0.20201l0.40403,-1.61611l0.26264,-1.18187v-2.39564l-0.04517,-0.06776l0.04517,-0.20327v-0.20201l0.40403,-1.61611l0.36137,-1.62618l0.09034,-0.18069l0.0505,-0.20201l0.04681,-0.02675l0.14558,-0.87347l0.54012,-1.24228l0.39441,-1.29592l0.29177,-0.48629l0.10703,-0.64218l0.18536,-0.42632l-0.08297,-0.30423l0.78169,-1.30281l0.60579,-1.39333l0.29579,-0.10931l0.1157,-0.19283v-0.07927l0.28266,-1.13064l0.08939,-1.16201l0.33333,-1l0.194,-0.30485l0.00687,-0.0275l0.01669,-0.00954l0.55033,-0.8648l0.03075,-0.55353l0.70729,-0.60625l0.50013,-0.78592l0.54362,-0.10872l1.08596,-0.93083l2,-1l0.5094,-0.1132l0.09836,-0.06259l0.00954,-0.01669l0.0275,-0.00687l0.30485,-0.194l1,-0.33333l1.16201,-0.08939l1.13064,-0.28266h3.66667l1.13064,0.28266l1.16201,0.08939l1,0.33333l0.30485,0.194l0.0275,0.00687l0.00954,0.01669l0.09836,0.06259l0.5094,0.1132l1.14277,0.57139l2.13751,0.91608l0.69248,0.52628l0.80161,0.33752l0.27588,0.20691l0.50367,0.26862z" fill="#250000" stroke-width="0.5"/><path d="M238.58923,65.00315c5.90648,-0.34486 11.3441,1.90846 11.82744,9.16352c0.08125,1.21952 0.14634,2.45324 0,3.66667c0,1.45353 -0.42775,2.80716 -1.16423,3.94187c0.58464,0.45186 1.54488,0.46596 1.92465,1.0998c1.45384,2.42647 -0.10676,5.79644 0.90625,8.4375c0.15026,0.39176 0.69129,0.30405 1.19751,0.28599c-0.39805,-3.58195 -0.50273,-7.20186 -0.69751,-10.49846c-0.03058,-0.51759 -0.36423,-1.58582 -0.72723,-2.69492c-0.51087,-0.90067 -0.8345,-1.92148 -0.91795,-3.00952c-0.05079,-0.25177 -0.06323,-0.43004 -0.02126,-0.50486c-0.00015,-0.01911 -0.00022,-0.03825 -0.00022,-0.05739c0,-4.00406 3.24594,-7.25 7.25,-7.25c1.38123,-0.82112 2.59446,0.07976 3.659,0.98971c0.54848,0.32127 1.05098,0.71256 1.49521,1.1616c0.51002,0.26954 0.60492,-1.06701 1.12625,-1.31396c1.24604,-0.59023 2.84741,-1.18165 4.2977,-1.36323c7.59692,-0.95118 9.3995,-1.04838 13.97237,5.37646c0.49449,0.69475 1.3664,-1.10939 2.19369,-1.31622c1.90922,-0.4773 4.75189,-0.19256 6.54745,0.70522c3.08442,1.54221 4.77394,5.39461 6.10328,8.88051c0.16307,-0.14761 0.33081,-0.28944 0.50323,-0.42493c0.82707,-0.64993 3.27098,-0.69907 3.60693,-1.36188c4.91855,-9.70395 9.61735,-19.37396 22.73719,-14.23455c6.19033,2.42492 9.07701,15.40315 5.10145,19.77626c-3.15432,3.46975 -5.83629,3.66184 -9.84898,5.18558c-0.60586,0.23007 -5.67833,1.33393 -5.5781,2.41808c0.0548,0.59271 4.0669,1.33324 5.04265,1.56005c5.23103,1.21592 14.29068,-0.16268 14.29068,8.21129c0,6.79632 -5.92574,7.58246 -10.58333,7.25c-7.09939,-0.50676 -17.38901,-2.65278 -21.47827,-8.98911c-2.28773,3.34238 -5.06735,3.5709 -10.06546,1.46085c-1.11458,-0.47054 -1.18417,-2.18181 -2.12505,-2.94237c-0.28362,-0.22926 -0.07184,0.73087 -0.17987,1.07919c-0.26707,0.86113 -0.55994,1.71811 -0.93453,2.5382c-0.69365,1.5186 -2.34184,3.57497 -3.64215,4.30882c-2.80969,1.58568 -8.32496,0.05804 -9.91842,-2.74724c-1.00696,-1.77275 -1.71068,-8.12432 -1.87648,-9.63528c-0.17256,-1.5726 1.10309,-4.33491 -0.42969,-4.72663c-0.11924,-0.03047 -0.35566,4.32673 -0.71237,5.72864c-0.66119,2.59856 -3.37597,12.11807 -8.11249,10.82629c-1.20178,-0.32776 -6.2962,-1.49687 -6.85338,-2.53277c-0.08511,-0.15823 -0.16815,-0.31775 -0.24917,-0.4785c-2.19992,2.65699 -6.40713,2.78047 -9.71105,1.95449l-1.31486,0.78892c-6.47886,1.97183 -18.04002,-0.48069 -20.40718,-8.25849c-1.93458,-6.35647 -0.85638,-13.0079 1.18821,-19.20805c1.20267,-3.64706 2.00905,-8.36246 5.05995,-10.95273c-1.75832,-0.45654 -3.49968,-1.42408 -4.91482,-2.83922c-0.52179,-0.52179 -0.73433,-1.26062 -0.82627,-2.03513c1.04842,0.82361 2.83396,1.45111 3.70346,1.85781c1.55327,0.72653 2.75441,2.4572 4.46656,2.55232c1.40873,0.07826 2.39307,-1.51073 3.67502,-2.10001c0.47785,-0.21966 1.23609,-0.5443 2.02894,-0.92187c-0.17029,0.4366 -0.37682,0.8335 -0.61473,1.19169zM237.83333,91.91667c4.28021,0 7.75,-3.46979 7.75,-7.75c0,-4.28021 -3.46979,-7.75 -7.75,-7.75c-4.28021,0 -7.75,3.46979 -7.75,7.75c0,4.28021 3.46979,7.75 7.75,7.75zM317.16667,82.58333c2.62335,0 4.75,-2.12665 4.75,-4.75c0,-2.62335 -2.12665,-4.75 -4.75,-4.75c-2.62335,0 -4.75,2.12665 -4.75,4.75c0,2.62335 2.12665,4.75 4.75,4.75z" fill="#250000" stroke-width="0.5"/><path d="M185.29418,58.96422c1.2157,2.01488 0.70986,4.41537 1.28181,6.55832c2.65648,9.95322 2.1146,19.58772 2.17402,29.96556c0.01989,3.4736 3.43155,9.2991 0.09375,12.6369c-4.83333,4.83333 -7.85417,4.83333 -12.6875,0c-1.49367,-1.49367 -1.47308,-7.98526 -1.73111,-10.59112c-0.82158,-8.29714 0.96711,-22.00958 -1.99588,-31.49534c0.73543,12.03927 1.04848,26.54066 0.65408,38.12812c-0.12995,3.81788 -2.49782,7.25 -7.25,7.25c-2.33164,0 -4.08735,-0.82436 -5.28722,-2.11447l-0.40498,0.17999l-0.01613,0.02823l-0.1083,0.02708l-0.57219,0.25431l-1.48346,0.25961l-1.46104,0.36526h-0.62616l-0.10997,0.01924l-0.0262,-0.01924h-3.90434l-0.86587,-0.21647h-0.89252l-1.33333,-0.33333l-1.73041,-0.92289l-0.56408,-0.03134l-0.38867,-0.45345l-0.40752,0.18435l-1.09719,0.76194l-0.40563,-0.08209l-0.68453,0.30967l-3.66667,0.66667l-0.6576,-0.04289l-0.63932,0.15983h-1.66667l-1.38759,-0.3469l-0.53485,0.14587l-0.79881,-0.47928l-0.90375,-0.22594l-0.27505,-0.48134l-1.22647,-0.73588l-0.15904,-0.15904l-0.40268,-0.26845l-0.76268,-0.83895l-0.49089,-0.13806l-0.5186,-0.97238l-0.74131,-0.81544l0.03508,-0.50873l-0.53356,-1.00042l-0.33333,-1.33333v-0.89252l-0.21647,-0.86587v-4.33333l0.09901,-0.39606l-0.05467,-0.40457l0.33333,-3l0.01779,-0.0479l-0.00615,-0.05072l0.33333,-2.66667l0.22129,-0.57167l0.02848,-0.61235l0.49923,-1.66411c-0.23046,0.14764 -0.46363,0.28538 -0.69908,0.41119c-0.77167,0.41231 -2.72751,0.19469 -2.42092,1.01413c4.6285,12.37089 -5.98024,25.87519 -18.23579,27.68894c-3.11483,0.46098 -6.19365,1.51066 -9.49185,0.17775c-1.15479,-0.46668 -2.61895,-0.88057 -3.1524,-2.00607c-0.27226,-0.57444 -0.50577,-1.1216 -0.70279,-1.64285c-3.27624,-0.32605 -6.32795,-2.62466 -6.4355,-6.8957c-0.27157,-10.78495 0.1526,-21.57782 0,-32.36511c-0.03377,-2.38735 0.133,-4.90617 -0.75373,-7.12299c-0.3731,-0.87357 -0.57961,-1.83529 -0.57961,-2.84524c0,-0.64667 0.08466,-1.27356 0.24351,-1.8702c0.40288,-1.85538 1.23799,-3.15697 2.3168,-3.98953c-0.14818,-0.57764 -0.22698,-1.18309 -0.22698,-1.80694c0,-2.35936 1.12701,-4.45549 2.87204,-5.77943c0.2232,-0.21608 0.47207,-0.40632 0.75296,-0.56432c6.73369,-3.78777 21.36803,5.0421 27.50058,6.67285c5.78197,1.53753 15.61483,3.28159 17.00238,10.37825c0.31753,1.62402 0.496,3.26705 0.50302,4.89013l0.35924,-0.2737l0.20927,-0.50225l0.91462,-0.35404l0.78012,-0.59438l0.53753,0.08432l1.25233,-0.48477l2.66667,-0.33333l0.4548,0.05513l0.44445,-0.11111h1.86029l0.06776,-0.04517l0.20327,0.04517h0.20201l1.61611,0.40403l1.62618,0.36137l0.18069,0.09034l0.20201,0.0505l0.01484,0.02597l0.31948,0.10649l0.81697,0.51989l0.91195,0.3257l0.62444,0.41629l0.26295,0.13148l0.88487,0.75846l0.037,0.0222l0.07717,-0.00164l0.11986,0.11986l0.76533,0.4592l0.66667,0.66667l0.1998,0.33299l0.08632,0.07399l0.00428,0.07701l0.1688,0.28133l0.6311,0.6311l0.15048,0.2508l0.01311,0.00262c-0.0598,-2.95374 -0.1384,-5.90945 0.03625,-8.85666c0.01044,-0.17625 0.01602,-0.36236 0.02084,-0.55388c0.28294,-3.74529 3.41145,-6.69612 7.22916,-6.69612c2.35936,0 4.45549,1.12701 5.77943,2.87204c0.11067,0.11432 0.21456,0.23537 0.31082,0.364c-0.00459,-0.10589 -0.00691,-0.21236 -0.00691,-0.31938c0,-0.64667 0.08466,-1.27356 0.24351,-1.8702c0.69602,-3.20536 2.68209,-4.75789 4.98605,-5.09454c3.1881,-0.46584 6.98489,1.3964 8.81461,4.42896zM117.23277,76.19453c1.02413,-0.35015 7.18522,-3.01604 5.68389,-4.35332c-1.50572,-1.34119 -5.38851,-1.65903 -6.74173,-2.03683c-4.87764,-1.36176 -9.65943,-3.17258 -14.31471,-5.15904c0.47414,3.0344 0.42338,6.48454 0.48182,7.88953c0.07576,1.82135 0.1357,3.66313 0.18169,5.51845c4.30507,-1.38391 7.96569,0.44678 14.70903,-1.8588zM144.5,95.58333c2.62335,0 4.75,-2.12665 4.75,-4.75c0,-2.62335 -2.12665,-4.75 -4.75,-4.75c-2.62335,0 -4.75,2.12665 -4.75,4.75c0,2.62335 2.12665,4.75 4.75,4.75zM105.60748,101.58333c0.10419,-0.00734 0.2038,-0.04647 0.30398,-0.076c0.59841,-0.17636 7.09069,-2.84461 5.65447,-4.58802c-1.3752,-1.66935 -4.30145,-0.49625 -6.42458,-0.90885c-0.82426,-0.16018 -1.68286,-0.40245 -2.53333,-0.72316c-0.02566,2.20783 -0.06268,4.40513 -0.10799,6.58061c1.03377,-0.1262 2.08405,-0.21245 3.10745,-0.28459zM156.82319,91.42633l-0.11797,0.18538l-0.11002,0.022c-0.01687,0.0147 -0.0338,0.02933 -0.0508,0.04388l0.53893,2.15574v0.57053l1.20035,-0.06669c-0.04107,-1.509 -0.08144,-3.06591 -0.11976,-4.63426c-0.35872,0.64081 -0.81192,1.22157 -1.34073,1.72342z" fill="#250000" stroke-width="0.5"/></g><path d="M-88.5,453.5v-176h703v176z" fill="#3a2017" stroke-width="0"/><path d="M269.68911,219.15129c-0.69848,-1.36314 -1.28056,-3.04911 -1.90616,-4.76078c-1.85504,-1.63479 -3.77674,-3.23782 -5.71516,-4.94271c-1.2231,-1.07575 -2.47556,-2.25165 -3.76912,-3.41977c-0.58304,-0.06818 -1.11319,-0.15446 -1.53843,-0.29254c-4.33219,-1.40664 -8.7513,-2.66609 -12.82413,-4.63077c-1.10912,-0.53503 -2.57,-0.55418 -3.38668,-1.47583c-0.13037,-0.14712 -0.25586,-0.29775 -0.37704,-0.45149l-0.0681,0.06286l-2.99455,-3.2441c-0.45593,-0.49081 -0.73474,-1.14843 -0.73474,-1.87117c0,-1.51878 1.23122,-2.75 2.75,-2.75c0.10496,0 0.20854,0.00588 0.31044,0.01733l2.46319,0.24632l-0.01028,0.10277l0.28051,-0.0621c3.30044,1.00237 6.72092,1.76294 9.87033,3.20427c3.22322,1.47511 6.1549,3.77861 8.92259,6.19624c2.34059,0.31302 4.25459,0.13092 6.76967,2.26637c2.13074,1.80912 3.47756,4.8236 4.63629,7.80466c2.45647,2.22285 4.7894,4.52311 6.91544,7.17427c3.16855,-0.38528 6.52735,-2.69685 9.17564,-4.30744c5.69116,-3.46115 11.75542,-7.0618 15.9986,-12.33506c1.91346,-2.37797 3.07843,-5.29879 4.99361,-7.74178c1.83474,-2.34039 4.07266,-4.27495 6.23852,-6.23507c1.2533,-1.13425 2.41443,-3.49884 4.04602,-3.05703c1.9612,0.53107 2.25662,3.3795 3.38494,5.06924c-1.30435,5.47359 -3.8045,9.64413 -7.84615,13.64571c-1.55892,1.54347 -3.74599,2.3059 -5.45698,3.67887c-5.21214,4.18244 -10.36811,8.48725 -15.87061,12.33899c-3.09675,2.16771 -6.3749,3.86622 -9.25886,6.23526c0.62874,1.51295 0.95474,3.08923 0.61352,4.64001c-0.69963,3.17972 -2.41713,3.02963 -4.23189,4.81272c-2.7179,2.67047 -3.82628,6.6601 -6.45938,9.45851c-1.78422,1.89624 -5.71539,4.6537 -6.27189,7.5449c-0.37745,1.96099 2.53244,5.09362 2.53657,7.27279c0.00555,2.92485 -1.32085,4.74126 -2.61318,7.14539c-1.83233,3.0504 -3.20168,6.13823 -4.35602,9.40881c-0.01509,0.15801 -0.02908,0.31601 -0.04193,0.47402c0,0 -0.08098,0.89073 -0.65854,1.61005c-0.10639,0.3319 -0.21119,0.66589 -0.31463,1.00211l-0.27,0.23618l0.11258,0.06755l-1.47407,2.45678c-0.47501,0.82383 -1.36476,1.37836 -2.38404,1.37836c-1.45602,0 -2.64776,-1.13157 -2.74376,-2.56326l-0.24814,-3.22582l0.04353,-0.00335c-0.01904,-0.11424 -0.03519,-0.22919 -0.04819,-0.34492c-0.36808,-3.27603 1.81351,-9.29774 2.55944,-12.69732c1.10138,-5.01954 1.19833,-11.0436 3.10338,-15.857c0.15185,-0.38367 0.31415,-0.76288 0.48562,-1.13814c-0.05685,-0.39935 -0.10567,-0.79332 -0.14139,-1.18032c-0.67198,-7.28097 -1.23665,-19.19256 6.1131,-23.37062c0.40986,-0.23299 1.80406,-0.70395 3.29518,-1.17703c-0.60474,-0.76994 -1.16657,-1.56098 -1.60465,-2.41593z" fill="#a1a1a1" stroke-width="0.5"/><path d="M68.91314,222.09957c1.52543,2.28814 -0.76271,3.81356 -0.76271,3.81356l-1.2541,0.76517c-0.35379,0.14151 -0.70757,0.28303 -1.06136,0.42454c0.19844,0.94999 0.00033,2.03801 0.04003,3.02215c0.07709,1.91125 0.28542,6.94083 -0.81411,9.02629c-1.37753,2.61275 -5.12614,4.2609 -7.19242,5.8504c-4.77649,3.67433 -6.72005,10.39052 -9.5843,15.44936c-0.89917,1.58811 -1.9847,3.31271 -1.91097,5.13403c1.36579,1.57665 2.59615,3.45038 3.23526,4.85884c1.0646,2.34613 0.2529,4.12117 1.65692,5.25071c0.39111,-0.07824 2.66849,-0.42272 3.27752,2.0134c0.66697,2.66789 -2.00092,3.33486 -2.00092,3.33486l-3.00249,-0.01396c-0.54185,-0.34208 -1.16007,-0.59911 -1.73283,-0.90677c-2.50603,0.22971 -2.89968,-2.32901 -2.89968,-2.32901c-0.50142,-4.53725 -3.11274,-4.84475 -6.297,-7.55932c-1.1835,-1.00893 -1.94473,-2.46298 -3.16275,-3.42995c-5.00613,-3.97428 -12.10526,-5.73108 -17.61941,-8.76677c-2.25598,-1.24198 -3.65457,-3.63038 -5.42749,-5.49819c-1.76898,-1.86365 -3.86448,-2.20339 -4.8496,-4.94669c-1.65464,-4.60774 -0.27289,-12.9289 7.41955,-8.75624c1.80473,0.97895 1.09281,7.07077 1.29439,8.92809c2.25559,1.85243 4.43043,1.85423 7.04222,3.12782c3.99122,1.94625 6.60895,5.61523 10.45914,7.86083c2.3915,1.39482 5.2044,2.13552 7.72288,3.2294c0.80844,-2.576 2.28918,-4.78037 3.71835,-7.41746c2.10494,-3.88401 3.62786,-7.93538 6.61866,-11.27372c2.23132,-2.49061 6.91305,-3.92581 8.36321,-6.69226c1.00227,-1.91202 0.05028,-4.31918 0.18589,-6.47371c0.02447,-0.38885 0.54497,-0.7525 0.37985,-1.1054c-0.13496,-0.28845 -0.64292,-0.02271 -0.94893,-0.11091c-1.01729,-0.29321 -2.14092,-0.41681 -3.00491,-1.02868c-0.91467,-0.64777 -1.41735,-1.73668 -2.12602,-2.60501l-0.55,-1.9c0,0 0,-2.75 2.75,-2.75c1.73876,0 2.37814,1.09937 2.61326,1.9079c0.47607,0.54047 1.00888,0.83722 1.5699,1.04782c0.52517,-0.7009 1.29552,-1.00904 1.29552,-1.00904c0.83333,-0.33333 1.66667,-0.66667 2.5,-1l0.2459,-0.23483c0,0 2.28814,-1.52543 3.81356,0.76271zM51.45333,275.83287c0.2086,0.14053 0.45795,0.26998 0.75719,0.3882z" fill="#a1a1a1" stroke-width="0.5"/><path d="M458.27893,269.78948c1.33552,2.40393 -1.06841,3.73945 -1.06841,3.73945l-2.55984,1.39763c-9.2259,2.45499 -19.86075,2.36695 -28.24487,6.88196c0,0 -2.43353,1.2808 -3.71433,-1.15272c-0.43058,-0.81811 -0.44138,-1.50594 -0.26597,-2.05863c-0.26129,-0.37074 -0.39856,-0.77751 -0.47068,-1.1026c-0.23763,0.24044 -0.55168,0.46062 -0.96295,0.6434c-2.51298,1.11688 -3.62986,-1.3961 -3.62986,-1.3961c-2.35199,-5.29406 -4.43426,-11.43513 -8.3066,-15.80599l0.33975,0.39879c0,0 -2.45967,-1.22984 -1.22984,-3.68951c1.22984,-2.45967 3.68951,-1.22984 3.68951,-1.22984l1.33975,0.89879c4.10298,4.73649 6.41841,10.88089 8.93032,16.59864c0.74881,-4.82239 3.05033,-9.0365 5.29041,-13.51759l1.00967,-1.42016c0,0 1.65,-2.2 3.85,-0.55c2.2,1.65 0.55,3.85 0.55,3.85l-0.49033,0.57984c-1.99892,3.99704 -4.48721,8.0213 -4.90204,12.49353c7.96748,-3.02412 16.85653,-3.36834 25.16669,-5.52493l1.94016,-1.10237c0,0 2.40393,-1.33552 3.73945,1.06841z" fill="#a1a1a1" stroke-width="0.5"/><path d="M-127.25,-43c0,-1.38071 1.11929,-2.5 2.5,-2.5c1.38071,0 2.5,1.11929 2.5,2.5c0,1.38071 -1.11929,2.5 -2.5,2.5c-1.38071,0 -2.5,-1.11929 -2.5,-2.5z" fill="#ffbb66" stroke-width="0.5"/><path d="M366.84685,92.20137c-0.72415,-4.51342 -0.09684,-9.61818 -0.09684,-14.20136c0,-0.39504 -0.00284,-0.86673 -0.00419,-1.38548c-1.07033,-0.87601 -2.02061,-1.78073 -3.06513,-2.51923c-0.01959,0.00665 -0.03924,0.01327 -0.05897,0.01984c-3.22728,1.07576 -5.47866,0.19975 -6.97549,-1.07879c-0.02738,0.25586 -0.03827,0.51056 0.00693,0.7623c0.44572,2.4821 1.71884,4.7838 2.04065,7.28499c0.41649,3.23709 -0.49836,6.78766 0,10c0.78979,5.09085 1.0562,9.71541 1.0562,14.91638v0.64236c2.17043,0.25932 5.49214,-0.78013 7.90174,-0.57051c0.55653,-0.67882 1.1461,-1.34253 1.78153,-1.94676c-0.68099,-4.18524 -1.91703,-7.75156 -2.58643,-11.92373zM381.5533,64.6967c0.268,0.268 0.50892,0.536 0.7248,0.80331c2.57741,0.00257 5.38423,0.35769 7.98591,0.02394c1.3157,-1.75019 4.42906,-4.68768 9.3401,-2.23216c6.70821,3.3541 3.35411,10.06231 3.35411,10.06231l-5.3365,5.76103c-5.1651,1.59526 -10.02618,1.38487 -15.37171,1.38487c-0.1655,0 -0.32987,0.00035 -0.49318,0.00091c-0.00434,0.16655 -0.00682,0.33293 -0.00682,0.49909c0,3.79864 -0.3045,7.3139 0.7009,10.90309c0.5908,2.10911 1.54334,4.68269 0.41166,6.55797l0.54769,-0.70144c0,0 2.13709,1.42472 3.07626,3.85729c0.46599,0.07569 0.85239,0.16483 1.1352,0.26796c1.84511,0.67283 3.09967,2.45544 4.85158,3.3431c0.87117,0.44141 1.91574,0.38075 2.87361,0.57113l3.27481,1.08577c0,0 7.11512,2.37171 4.74341,9.48683c-2.37171,7.11513 -9.48683,4.74342 -9.48683,4.74342l-2.72519,-0.91423c-1.7088,-0.47629 -3.53579,-0.6435 -5.12639,-1.42887c-1.23131,-0.60797 -1.97171,-1.94901 -3.14842,-2.6569c-0.21046,-0.1266 -0.38406,0.35897 -0.62829,0.38487c-0.99442,0.10549 -2.00942,0.13693 -3,0c-0.0509,-0.00704 -0.10763,-0.01475 -0.16785,-0.0236c-0.53755,1.42907 -1.21543,2.83004 -2.44682,3.60792c-2.11918,1.3387 -4.89789,1.10639 -7.38533,1.41568c-3.54046,0.44023 -8.68084,0.43937 -12.20137,-0.09685c-4.64119,-0.70691 -7.83944,-1.61597 -11.95889,-4.16278c-1.02659,-0.63468 -3.4949,-3.26394 -4.83975,-2.74037c0,0 -7.5,0 -7.5,-7.5c0,-7.5 7.5,-7.5 7.5,-7.5c1.57425,0.09793 3.21456,-0.15462 4.74003,0.2022c0.00149,-0.95475 -0.04514,-1.89178 -0.18383,-2.78583c-0.21069,-1.35812 -0.81824,-2.6377 -1,-4c-0.43922,-3.29206 0.38916,-6.72249 0,-10c-0.44561,-3.75301 -1.93245,-6.59032 -2.04895,-10.43764c-0.45468,0.00339 -0.95243,0.00848 -1.50725,0.02126c0,0 -7.5,0 -7.5,-7.5c0,-7.5 7.5,-7.5 7.5,-7.5c0.68584,0.03693 1.50972,0.53511 2.05701,0.12012c1.06048,-0.80412 1.81627,-2.1108 3.07286,-2.54921c2.22795,-0.77731 11.63617,-1.24493 14.0435,-0.2491c1.94233,0.80347 3.56921,2.19096 5.24393,3.48989c3.38995,0.83391 6.42296,2.31527 9.29834,4.50131c2.01702,-0.76123 4.80233,-0.90163 7.58765,1.88369z" fill="#3e0000" stroke-width="0.5"/><text transform="translate(191.39472,101.38514) scale(0.00444,-0.00444)" font-size="40" xml:space="preserve" fill="#000000" fill-rule="nonzero" stroke="none" stroke-width="1" stroke-linecap="butt" stroke-linejoin="miter" stroke-miterlimit="10" stroke-dasharray="" stroke-dashoffset="0" font-family="Sans Serif" font-weight="normal" text-anchor="start" style="mix-blend-mode: normal"><tspan x="0" dy="0">By Humater003, modified by KiritoNotFound</tspan><tspan x="0" dy="46.15px"> </tspan></text></g></g></svg>